<svg width="126" height="34" viewBox="0 0 126 34" fill="none" xmlns="http://www.w3.org/2000/svg">
<path fill-rule="evenodd" clip-rule="evenodd" d="M56.4986 21.8923C55.7472 21.5335 54.9724 21.2484 54.1731 21.0359C53.3731 20.8241 52.5001 20.7175 51.5539 20.7175C50.0193 20.7175 48.8368 21.0526 48.0046 21.721C47.1723 22.3902 46.7562 23.2137 46.7562 24.1925C46.7562 25.171 47.1555 25.9543 47.9556 26.5416C48.7549 27.1286 49.6768 27.4225 50.7217 27.4225C51.5702 27.4225 52.3532 27.2679 53.0716 26.9575C53.7892 26.6477 54.4012 26.2402 54.9075 25.7341C55.4131 25.2284 55.8047 24.6412 56.0825 23.972C56.3592 23.3036 56.4986 22.6102 56.4986 21.8923ZM56.4986 29.0864H56.107C55.3556 30.0003 54.4501 30.7833 53.3898 31.4355C52.3288 32.0877 50.9665 32.4143 49.3019 32.4143C48.0612 32.4143 46.8948 32.21 45.8015 31.8025C44.7077 31.3951 43.753 30.832 42.9375 30.1141C42.1212 29.3968 41.4848 28.5318 41.0282 27.5203C40.5708 26.5094 40.3428 25.3997 40.3428 24.1925C40.3428 22.9528 40.5876 21.8356 41.0771 20.8401C41.5667 19.8451 42.2521 18.9889 43.1333 18.2705C44.0146 17.5534 45.0504 17.0066 46.2421 16.6311C47.433 16.2566 48.7307 16.0685 50.1342 16.0685C51.7008 16.0685 52.9897 16.1906 54.0018 16.4353C54.6921 16.6025 55.2989 16.7733 55.8222 16.9479C56.1559 17.0592 56.4986 16.8114 56.4986 16.4598C56.4986 15.1876 55.9923 14.1354 54.9809 13.3032C53.9688 12.4715 52.7122 12.0555 51.2112 12.0555C48.9914 12.0555 47.1151 12.9853 45.5812 14.845L40.9303 11.664C43.476 8.46669 46.952 6.86792 51.3581 6.86792C55.0789 6.86792 57.9184 7.7411 59.8766 9.48618C61.8349 11.2318 62.8141 13.8171 62.8141 17.2428V31.6313H56.4986V29.0864Z" fill="#1CAAE2"/>
<path fill-rule="evenodd" clip-rule="evenodd" d="M64.8701 7.65088H72.1647L78.1375 22.9197H78.4802L84.5019 7.65088H91.7475L81.4176 31.6312H75.1021L64.8701 7.65088Z" fill="#1CAAE2"/>
<path fill-rule="evenodd" clip-rule="evenodd" d="M27.4401 6.86768C29.5997 6.86768 31.418 7.14586 32.8947 7.70119C34.3714 8.25678 35.483 9.15366 36.2295 10.3916C36.9752 11.63 37.3488 13.313 37.3488 15.4395V31.6308H30.2508V16.8681C30.2508 16.2656 30.1629 15.7097 29.9887 15.2015C29.8138 14.6941 29.5517 14.2573 29.2029 13.8918C28.8529 13.5273 28.3765 13.2416 27.7736 13.0348C27.1699 12.8285 26.4396 12.7252 25.5821 12.7252C24.8513 12.7252 24.1768 12.8285 23.5576 13.0348C23.0569 13.2021 22.6341 13.4053 22.289 13.6445C22.3567 14.2028 22.3904 14.8012 22.3904 15.4395V31.6308H15.2924V16.8681C15.2924 16.2656 15.2045 15.7097 15.0303 15.2015C14.8553 14.6941 14.5933 14.2573 14.2442 13.8918C13.8945 13.5273 13.4181 13.2416 12.8149 13.0348C12.2114 12.8285 11.4812 12.7252 10.6237 12.7252C9.89291 12.7252 9.21833 12.813 8.59915 12.9872C7.97972 13.1618 7.47932 13.3442 7.09823 13.5348V31.6308H0.000488281V9.58201C0.603433 9.26519 1.39757 8.9391 2.38212 8.6058C3.36616 8.27249 4.4463 7.97937 5.62153 7.72489C6.7965 7.47118 7.97972 7.26511 9.17066 7.10593C10.3619 6.94727 11.4649 6.86768 12.4817 6.86768C14.641 6.86768 16.4596 7.14586 17.9363 7.70119C18.5384 7.92771 19.0797 8.21096 19.5603 8.55092C20.6917 8.0831 21.8736 7.70451 23.1051 7.41528C24.6609 7.05081 26.1062 6.86768 27.4401 6.86768Z" fill="#1CAAE2"/>
<path fill-rule="evenodd" clip-rule="evenodd" d="M125.959 33.9387H119.469C118.279 33.9387 117.176 33.3151 116.564 32.2953L115.713 30.8805C114.965 31.1671 114.189 31.4008 113.392 31.5733C112.295 31.8149 111.153 31.9396 109.985 31.9396C108.816 31.9396 107.674 31.8149 106.578 31.5733C100.491 30.2538 95.6945 25.4595 94.3745 19.3748C94.6296 18.1853 95.0226 17.0437 95.5299 15.9686C97.0249 12.8066 99.5266 10.2131 102.621 8.60428C104.692 7.52633 107.026 6.88934 109.507 6.82031C104.83 7.06192 101.078 10.8104 100.833 15.4883C100.831 15.5624 100.828 15.6369 100.826 15.7139C100.823 15.7986 100.823 15.8836 100.823 15.9686C100.823 16.0536 100.823 16.1386 100.826 16.2236C100.828 16.3004 100.831 16.3748 100.833 16.4518C101.08 21.2039 104.95 24.9949 109.73 25.1249C109.815 25.1275 109.9 25.1275 109.985 25.1275C110.07 25.1275 110.155 25.1275 110.24 25.1249C110.317 25.1221 110.391 25.1195 110.466 25.1169C110.596 25.1169 110.723 25.109 110.851 25.101L110.994 25.093C111.127 25.0878 111.26 25.077 111.39 25.0639C111.533 25.0531 111.674 25.0374 111.817 25.0214C111.847 25.0188 111.876 25.016 111.908 25.0106C111.995 25 112.08 24.9894 112.165 24.9763L112.107 24.8805L108.522 18.9181H115.014C116.203 18.9181 117.304 19.5407 117.918 20.5586L118.99 22.348L121.689 26.8345L125.959 33.9387Z" fill="#75B955"/>
<path fill-rule="evenodd" clip-rule="evenodd" d="M119.137 15.488C118.89 10.7359 115.02 6.94211 110.24 6.81203C110.155 6.80946 110.07 6.80946 109.985 6.80946C109.9 6.80946 109.815 6.80946 109.73 6.81203C109.656 6.81486 109.582 6.81744 109.507 6.82027C107.026 6.88905 104.692 7.52629 102.621 8.60399C99.5271 10.2131 97.0253 12.8066 95.5301 15.9683C95.023 17.0437 94.6298 18.185 94.3747 19.3745C94.1333 18.278 94.0083 17.1364 94.0083 15.9683C94.0083 14.8005 94.1333 13.6615 94.3721 12.565C95.6947 6.4777 100.488 1.68576 106.578 0.366455C107.768 0.621198 108.91 1.01426 109.985 1.52117C113.148 3.01305 115.743 5.51385 117.349 8.60682C118.43 10.6749 119.068 13.0085 119.137 15.488Z" fill="#F7C821"/>
<path fill-rule="evenodd" clip-rule="evenodd" d="M117.349 8.60688C118.43 10.675 119.067 13.0086 119.136 15.488C119.139 15.5625 119.142 15.6366 119.144 15.7137C119.147 15.7987 119.147 15.8837 119.147 15.9687C119.147 16.0537 119.147 16.1384 119.144 16.2234C119.131 16.7365 119.07 17.2375 118.976 17.7261L123.259 24.8506C124.357 23.2137 125.161 21.3641 125.593 19.3746C125.834 18.2781 125.959 17.1368 125.959 15.9687C125.959 14.8005 125.834 13.6615 125.595 12.5653C124.273 6.47776 119.479 1.68582 113.392 0.366517C112.295 0.124911 111.153 0.000244141 109.985 0.000244141C108.816 0.000244141 107.674 0.124911 106.578 0.366517C107.767 0.621517 108.909 1.01432 109.985 1.52149C113.148 3.01337 115.742 5.51417 117.349 8.60688Z" fill="#E63E2A"/>
</svg>
